<?xml version="1.0" encoding="utf-8"?>
<!-- Generator: Adobe Illustrator 24.0.1, SVG Export Plug-In . SVG Version: 6.00 Build 0)  -->
<svg version="1.1" id="Ebene_1" xmlns="http://www.w3.org/2000/svg" xmlns:xlink="http://www.w3.org/1999/xlink" x="0px" y="0px"
	 viewBox="0 0 136.4 95.1" style="enable-background:new 0 0 136.4 95.1;" xml:space="preserve">
<path d="M31.5,63.6c1.6-0.6,1.6-1.9,2-2.9c4.4-11.2,8.6-22.5,13-33.7c3.9-9.9,9.3-18.5,19.1-23.6c4-2.1,8.3-2.9,12.7-3.4
	C80-0.2,80.8,0.2,81,2.1c2.1,16.7,4.2,33.4,6.4,50.2c0.5,3.9,1,7.8,1.7,12.7c0.7-1.6,1.1-2.3,1.3-3.1c3.4-10.7,6.8-21.3,10.2-32
	c2.1-6.7,5.3-12.8,9.9-18c6.8-7.8,15.5-11.4,26.1-11.6c-2.7,6.7-5.3,13.1-7.8,19.5c-6.4,15.8-12.9,31.6-19.3,47.3
	c-2.6,6.3-5.9,12.3-10.7,17.3c-6.7,6.5-14.8,9.8-24,10.6c-2.2,0.2-2.9-0.6-3.1-2.6c-1.7-12.6-3.5-25.1-5.3-37.6
	c-0.9-6.2-1.8-12.4-2.8-19.5c-1.8,4.7-3.3,8.6-4.8,12.4c-3.1,8-5.9,16.1-9.5,23.9C44.1,82.9,36,91.2,23.2,94.1c-8,1.8-7.8,1.8-9.1-6
	C9.6,60.8,5.1,33.5,0.6,6.3C0.5,5.8,0.4,5.4,0.4,5c-0.8-5.5-0.7-5.5,4.8-4.3C19,3.9,28.5,14.9,29.4,29.1c0.7,11,1.2,22,1.8,33
	C31.3,62.6,31.4,63,31.5,63.6z"/>
</svg>
